<?xml version="1.0" encoding="UTF-8"?><svg id="uuid-9ec90498-4882-4f06-9d76-b96b7f615714" xmlns="http://www.w3.org/2000/svg" viewBox="0 0 652.22 451.8"><defs>
<style>.uuid-e99c49d8 { fill: black; } @media (prefers-color-scheme: dark) {.uuid-e99c49d8 {fill: white;}}</style>
</defs><g id="uuid-d401f4b4"><g id="uuid-952dd12d"><path class="uuid-e99c49d8" d="M80.04,0v109.4c.9.5,1.7,1.1,2.6,1.6V2c99.9-.7,385.7-.7,485.6,0v180.1c.9.8,1.7,1.6,2.6,2.4V0H80.04Z"/><path class="uuid-e99c49d8" d="M570.24,292.8h.7v-56.8c-.9.2-1.7.3-2.6.5v56.4h2-.1v-.1Z"/><path class="uuid-e99c49d8" d="M570.84,451.8v-52.2c-.9-.8-1.8-1.7-2.6-2.6v52.8c-99.9.7-385.7.7-485.6,0v-124.4c-.9.7-1.8,1.3-2.6,1.9v124.5h490.8Z"/><path class="uuid-e99c49d8" d="M188.54,396.1c6.4,7.2,11.8,7.1,20.8,0,8.5,7.1,15.1,7.2,21.3,0-6.5-1-9-5.5-9.1-11.3-.2-13.7,0-27.3,0-42.3,2.4,1.1,4.9,1.5,5.5,2.7,5.9,13.5,11.7,27.1,17.1,40.8,1.7,4.2,1.7,8.7-4.2,10.4,7.6,7.1,13.6,6.8,21.6-.7,10.3,7.5,17.6,7.8,23.4.5-7.9-1.7-11.7-7-14.5-13.5-1.5-3.5-3.1-7-4.6-10.5-5.3-12.5-10.6-25-15.9-37.4,22.7-18,29.2-45.3,16.7-66-11.5-19-39.8-22-57.4-11.8-9.4-7.3-14.4-7.4-20.4,0,7.1,1.6,8.2,7.2,8.3,13.1.2,11.3,0,22.6.1,33.9,0,7.1-1.4,13.7-5.3,17.6,2,6.5,4.8,11.9,5,17.4.6,14.6.3,29.2.2,43.8,0,6.1-1.3,11.8-8.6,13.4h0v-.1ZM221.44,290.5c0-9.7-2.6-23.6,9.9-26.5,12.2-2.9,15.3,8.8,16.8,18.2,1.8,11.7.6,23.6-4.5,34.4-3.6,7.7-12.6,16.8-22.1,14.6,0-7.5-1.7-16.8,1.1-24,2-5.2,7.3-6.3,12.3-6.7-1.7-7-4.4-9-13.5-10h0Z"/><path class="uuid-e99c49d8" d="M276.14,256.1c7.6,1.7,8.5,7.7,8.6,13.9.2,11.5,0,23,0,34.5s-1.6,12.9-6.6,17.9c5.6,5.5,6.7,12.4,6.7,19.7,0,13.9.8,27.7,6.6,40.7,6.1,13.4,16.9,18.9,31.2,18.7,14-.2,24.5-6.1,30.2-19.3,5.6-13,6.4-26.8,6.4-40.7s1.3-13.8,5.7-18.1c-2-5.3-5-9.9-5.3-14.6-.6-14-.3-28.1,0-42.1,0-5.1,2.2-9.2,8.1-10.3.1-.6.3-1.1.4-1.7-3-1.4-6.1-4.1-8.9-3.9-4.3.4-8.5,2.8-13.2,4.6-7.1-6.8-13.7-7-19.2.5,6.7,3.5,8,5.4,8.2,13.8.2,11.1,0,22.2.1,33.4,0,7.3-1.3,14-5.7,18.4,2,5.5,5.2,10.1,5.2,14.8.1,14.2-.5,28.4-1.8,42.5-.7,7.4-5.1,10.8-10.9,10.8s-9.9-3.4-10.8-10.9c-1.3-11.4-1.6-22.8-2.2-34.3-.4-8.1,0-16,5.1-20.7-1.9-6.3-4.6-11.3-4.8-16.4-.7-12.4-.4-24.8-.2-37.2,0-6.2,1-12.1,8.5-14-6-7.5-11.2-7.3-21,.4-7.7-7.8-14.1-8-20.3-.3h-.1v-.1Z"/><path class="uuid-e99c49d8" d="M416.64,308.3c3.3,1.4,6.7,4.2,10.4,4.1,4.6,0,9.2-2.8,13.5-4.3,7.1,6.4,12.9,6.5,19.5-.7-6.9-1.7-8.4-7.7-8.7-14-.4-7.5-.6-15.1-3.3-22.3-7-18.8-33.8-25.3-50.8-16.2-9.9,5.4-14.9,15.8-17.2,26.4-1.7,7.7-2.2,15.5-3,23.3-.6,6.6-1.8,13.2-6.8,18,5.2,5.1,6.7,11.9,6.7,18.9.1,8.1.2,16.1,1.5,24.1,2,11.7,6.4,24.7,17.1,31.2,10.2,6.1,25.3,5.7,36.2,1.9,12.8-4.4,15.8-15.9,17.5-28.1,1-6.7,1.4-13.4,2.4-20.1.8-5,2.8-8.9,8-10.2-6.5-7.3-10.9-7.2-20.6.2-8.2-7.5-14.9-7.6-20.3,0,4.8.9,7.6,4.3,7.8,9.1.2,6.9-.4,14.1-.9,21-.4,4.9.3,11.9-3.4,15.7-3,3-8.1,3.7-12,2.4-4.9-1.8-6.4-6.2-7-11-.8-6.6-1.2-13.3-1.5-20-.5-10.2-3.8-25.6,4.5-33.7-1.7-5.6-4.3-11.1-5-17-.8-6.4-.4-13,.1-19.4.7-8.9,1.1-24.3,13.2-24.1,13,.2,12,15.5,12.5,25,.5,9-.6,16.7-10.3,19.8h-.1Z"/><path class="uuid-e99c49d8" d="M648.74,361.3c-3.8-8.3-10.5-14.7-19-19.3-5.7-3.1-11.7-5.9-18-8s-13-3.1-20.1-4.8c-.8-2.6-1.6-5.8-2.8-8.8-2.7-6.7-8.3-10.4-16.3-11.3-12.2-1.3-21,7.5-18.2,18.1.2,1,.5,1.9.9,3.2,0,0-4.7,0-13.4,2.3,1-3.7,2.7-7,5.8-10-5.3-5-6.5-11.3-6.8-18.1-.4-12.6-1.7-25.1-7.7-36.6-6.4-12.2-17.1-16.8-30.3-16.6-12.8.2-22.9,5.2-28.9,17.1-5.8,11.4-7.1,23.6-7.4,36.1-.2,6.7-1.5,13-6.8,18,5.6,5.5,6.8,12.2,6.7,19.6-.1,12.8.7,25.5,5.4,37.6,5.6,14.4,15.9,21.5,31.5,21.5s9.8-.7,13.9-2.2c.4,0,1.1-.4,2.1-.8,4.2-2,21.9-10.6,25.1-13.7,7.7-7.2,13.3-15.6,17.5-24.8,1-2.2,2-4.5,3-6.7,3.8-.3,7.6-1.2,10.9-2.7,13,1.4,22.9,10.3,23.3,22.6,0,3.1-1,6.5-2.5,9.3-.9,1.7-3.8,2.8-6,3.5-1.1.3-3.5-.7-4.2-1.7s-.6-3.1.2-4c.6-.7,2.8-.3,4.3-.3h1.6c2.1-4.3,1.8-6.5-1.2-8.3-3.4-2-8-1.3-10.8,1.6-3.2,3.4-3.4,8.9-.5,12.7,3,3.9,9.1,5.6,14.5,3.9,6.2-1.9,8.6-6.3,9.8-11.4,3.5-15-4.7-28-20.3-33.3,1.2-1.2,2.3-2.4,3.2-3.8.7-1.1,1.5-2.2,2.6-3.7,2.4.2,4.9.2,7.3.6,13.4,2.1,25.3,7,35.1,15.1,8.3,6.9,13.1,15.4,11.2,26.1-.8,4.7-3.2,8.7-8.5,10.9-4.4,1.8-7.1.3-8.9-5h3.1c.8,0,1.6.2,2.4.3,1.9-5.2,1.2-7.3-2.6-8.7-4.6-1.8-10.2,0-12.5,4-3.9,6.6,0,15.3,7.9,18,9.8,3.4,21.1-1.2,25.3-10.5,4.1-9.3,3-18.4-1-27.2h0v.2h.1ZM576.64,343.3c-2-.4-4-.8-6.1-1.2.5-1.3.8-2.2,1.2-3.1.3-.5.6-1,.9-1.5,3.2,0,6.4,0,9.7.2-1.7,2.3-3.7,4.2-5.8,5.6h.1ZM540.94,343.7c1.1.7,2.2,1.6,3.5,2.8,0,0,.2,0,.3.2-1.3.3-2.5.6-3.8.9v-4h0v.1ZM550.14,339c4.5-.8,9-1.2,13.5-1.4-.3,2.5-1,4.4-3.7,5.2-1.4.4-2.7.8-4.1,1.2-2.1-1.2-4-2.9-5.7-5h0ZM490.84,340.6c.2-7,3-12.5,5.1-19.1-1-1.7-2.7-4.8-4.7-8.5,7.2,0,11-3.1,12.4-8.4-3.6-2-8.4-2.9-10.6-6.8-2.4-4.3-2.4-10.3-2-15.2.8-8.9,3.6-21.3,15.2-18.8,10.1,2.2,9.9,18.2,10.4,26.2.4,5.8.7,11.8,0,17.6-.7,5.7-3.3,10.9-5,16.3,5.9,5.6,6.1,14.9,5.5,23.5-10,5-19.4,10.3-25.8,15.2v-1.8c-.3-6.8-.5-13.6-.3-20.4h0l-.2.2ZM504.44,388.9c-2,.3-3.8-.2-5.5-1.2-.2-1.5,0-3.1,1.2-4.8,2.8-4.5,8.7-9.5,15.8-14.2-.3,9-1.7,18.6-11.4,20.2h-.1ZM534.34,382.6c.4-.9.8-1.8,1.1-2.7,3.1-7.9,4.5-16.1,5-24.3,4.2-1.7,8.3-3.1,12.1-4.1,1.2.5,2.5.8,3.8,1.1-6,12-12.2,22-22.1,30h.1ZM571.84,329.7c-3.6-.2-7.2-3.9-6.7-6.4.5-3.1,4-5.3,8.3-5.2,6.6,0,10.1,3.2,11.8,11.4-5,0-9.2.4-13.4.2h0Z"/><path class="uuid-e99c49d8" d="M517.34,196.3c7.8,6.8,13.2,6.5,21.8-.8,10,7.5,17.7,7.7,21.9,2.1-4.1-4.3-9.3-7.7-11.6-12.5-7.9-16.5-14.8-33.6-22-50.3,23.3-20.5,29.5-45.9,16.6-66.4-4.9-7.7-11.6-13.2-20.4-15.5-12.7-3.2-25.2-3.3-36.7,3.9-9-7.4-13.5-7.5-20.8-.5,7.7,2,8.6,8.1,8.7,14.6v30.1c.1,8-.7,15.6-5.1,20.1,1.9,7,4.6,12.5,4.9,18.2.7,14,.3,28.1.2,42.1,0,6.5-1,12.5-8.8,14.5,7,7,11.4,6.9,21.1-.2,8,7.2,15.4,7.2,20.9,0-5.9-1-8.7-4.9-8.8-10.3-.3-14,0-28,0-43.7,2.6,1.7,5.1,2.4,5.8,3.9,5.6,12.6,10.9,25.4,16.1,38.2,2,4.8,3.2,9.9-3.6,12.4h-.2v.1ZM499.04,131.3c0-7.6-1.8-17.2,1.1-24.4,2.1-5.3,7.5-6.4,12.6-6.7-2.5-7.4-5-9.2-13.8-9.9,0-9.7-2.6-23.6,9.8-26.6,11.9-2.9,15.2,8,16.8,17.4,3.3,19.3-2,49.5-26.5,50.3h0v-.1Z"/><path class="uuid-e99c49d8" d="M291.84,55.5c-7.3-7.3-12-7.1-21.1.4-8.5-7.5-14.2-7.7-20.6-.2,11.9,2.9,8.7,19.5,8.7,28.5s.3,14.4,0,21.5c-.2,5.4-1.5,11.3-5.5,15.1,2.3,6.6,5.1,12.2,5.4,19.4.3,7,0,14.1-.2,21.1-.4,9.1.2,28.1-13.1,27.7-13.8-.4-11.4-21-11.9-30.2-.6-12-4.2-27.7,5.8-36.9-9.9-9.1-6.6-25.6-6.6-37.6s-3-25.2,8.7-28.9c-6.9-7.3-12.2-7.1-20.9.6-8.5-7.9-15.2-8-20.3-.1,5.3,1.1,7.6,5.1,8.1,10.2.7,6.5.3,13.2.3,19.7,0,11.8,2.6,27-6.6,36.3,6,6,6.6,13.9,6.7,21.9,0,8.5.5,17.1,2.4,25.5,2.7,12.2,8.5,24.5,20.9,29.3,10.1,3.9,23.2,3.4,32.5-2.3,11.6-7.1,15.7-21.6,17.4-34.2,1-7.6.9-15.2,1.2-22.9.2-6.5,2-12.7,6.8-17.4-9.8-9.3-6.8-25.7-6.8-37.8s-3-25.3,8.9-28.8h-.2v.1Z"/><path class="uuid-e99c49d8" d="M428.54,51.2c-8.9-.2-17.4.5-24.7,6-8.6-9.3-15.5-9.3-20.5-.5,6.4,2.9,8.1,5.3,8.2,13.2.2,11.1,0,22.2.1,33.4,0,7.1-1.2,13.7-5.1,17.5,1.9,7.2,4.6,13.1,4.9,19.1.7,13.8.3,27.7.2,41.5,0,6.5-1.1,12.5-8.7,14.6,6.8,7.2,12.3,7.1,20.2.1,5.1,1.7,9.8,4.5,14.6,4.7,14.9.6,29.8.2,45.1.2-3.7-14.8-7.5-29.2-4.6-44.5-6.8,1.5-10.9,4.9-11.2,11.2-3,.2-5.8.5-7.8.6,1.1,5,2.5,9.1,2.6,13.3,0,2.1-1.5,5.2-3.2,6.4-8.8,5.9-22.5-1.2-22.8-11.7-.3-10.6-.5-21.2.2-31.7.3-4.3,1.8-9.4,4.6-12.4,3.9-4.3,9-8.3,14.4-10s11.7-.4,17.9-.4c.1-.8.6-2.6.6-4.4,0-5.2-.2-10.5-5.1-13.6-4.8-3.1-9.8-1.9-14.5.7-1.7,1-3.5,2-5,3.3-4.5,3.9-9,7.8-13.3,11.6v-40.7c0-11,4.7-15.6,15.9-15.2,3,.1,7.9.9,8.6,2.6,1,2.5-1.2,6.2-2,9.4,0,.3,0,.6.2,1.4h8c3.6,2.5,7.1,4.9,10.6,7.3l1.4-1.2c-2.5-10.9-1.1-21.3,4.8-31.7-12.1,0-23.4.2-34.6,0h0v-.1Z"/><path class="uuid-e99c49d8" d="M300.04,195.9c6.5,7.1,12.6,7,20.5-.5,8.4,7.5,14.7,7.7,21.1.5-5.1-1.2-8.2-4.5-8.3-9.5-.2-14.3,0-28.7,0-43,2.6-.4,4.9-.8,7.2-1.2,26.3-4.7,43.6-26,42.7-52.6-.7-20-12.5-34.6-31.4-37.7-10.7-1.7-21.5-1.5-30.8,5.2-9.4-7.6-14.6-7.7-20.5-.4,6.3,1.4,8,6.1,8.1,11.5.2,13.5.5,27-.1,40.5-.2,4.9-3.1,9.8-5,15.1,3.9,3.5,5.3,9.3,5.3,15.5.1,14.2.1,28.4,0,42.6,0,6.3-1.1,12.1-8.6,14h-.2ZM333.04,75.2c0-6.7,4.8-11.1,11.3-11.9,5.7-.6,10.4,2.1,12.1,8.6,4.3,15.9,4.2,31.7-3.3,46.7s-10.7,12.1-20.2,12.7c0-19.1-.2-37.7,0-56.2h.1v.1Z"/><path class="uuid-e99c49d8" d="M11.24,157.2c7.5,3.6,16.3.1,18.3-7.2,1.2-4.4-1.4-9.5-5.9-11.5-3.7-1.6-5.6-.7-8,4.3.6.5,1.2.9,1.9,1.5.7.6,1.4,1.2,2.2,2-5,2.5-7.9,1.7-9.7-2.7-2.1-5.1-1-9.6,1.8-13.5,6.3-8.9,15.6-11.5,26.3-10.6,12.6,1.1,24.3,6,35.1,13.8,2,1.4,3.7,3.2,5.5,4.7-.3,1.8-.6,3.1-.8,4.4-3,13.8,8.4,32.7,26.1,33.4,9.9.4,11.5,3.5,7.3,12.6-.4.9-1,1.7-1.8,2.9-2.5-2.2-4.7-4.3-7-6.2-14.2-11.9-31.3-11.3-42,1.4-3.4,4-5.5,8.6-3.3,14.6,1.8,5.2,6.8,9,11.6,9s9-3.5,9.8-8c.7-3.9-1.5-8-5.1-9.4-3.2-1.3-5.1-.3-7.3,4,.3.4.6.8.9,1.3.8,1.2,2.5,2.7,2.3,3.6-.3,1.2-1.9,2.5-3.1,2.6-1.2,0-3.5-1.2-3.9-2.3-.8-2.2-1.5-5.1-.8-6.8,1.3-2.9,3.4-5.8,6-7.6,12.4-8.8,29.6-2.9,37.3,12.7-1.6,2.8-3.2,5.7-4.8,8.6-2.8,5.1-5.2,10.4-6.8,16-15,.2-24.6.3-25.2.3.6,0,10.1.1,25,.3-1.1,3.9-2,7.8-2.5,12-.5,4.3-.5,8.9.3,13.2-1.7,0-3.3-.2-5-.4,3.9,15.3,3.6,36.5-20.7,68.8,16.4-11.2,30.4-28.6,31.5-34.2,3.3-.2,11.5-.7,13.4-.8-1.1-4.4-4.7-12.3-2.5-17.3,3.5,0,6.5-1.7,9.2-4,3.9,1.2,6.5,5.7,7.1,10,1.3,9.3.4,19.3.4,28.7s-.9,15.6-6.7,21.3c4.9,4.8,6.5,11.1,6.6,17.8v23.3c0,7.8.4,13.9,0,20.7-.5,5.7-2.9,10.2-8.6,12,7.1,6.9,12.4,6.7,20.7-.3,8.8,7.2,14.5,7.3,20.8,0-5.8-1.5-8.1-6.1-8.5-11.7-.5-7.4-.1-15-.1-22.5s-.3-14.7,0-22.1c.2-6.6,1.7-12.9,6.8-17.4-6.5-6.2-6.8-13.8-6.8-22.2s-1.2-19.4.5-28.5c1.1-6.2,7.4-12.7,13.8-7.8,6.3,4.8,1.2,14.1-.7,19.8h8c2.5,8.4,5.3,11,11.9,11-2.8-15,.5-29.5,4.7-44.7-17.4,2.2-35-3.8-50.4,6.4-3.6-2.3-7.4-3.8-11.1-4.7,1.4-2.8,2.6-5.8,3.5-8.9,1.6-5.6,2.5-11.3,2.7-17,67.8,1,165.7,2.6,165.7,3.5,0-1.4,3.9-4.4,4.5-4.4-.6,0-4.5-3.1-4.5-4.4,0,.9-97.9,2.5-165.6,3.5.1-9.8-1.7-19.8-4.9-29.8-.2-.7-.5-1.3-.7-2,8.1,7.8,20.6,9.7,31.7,9,11.3-.7,22.2-5.7,28.5-15.5,6.5-10.3,6.7-23.7,2.5-34.9-2.5-6.6-6.5-12.5-11.1-17.9-4.4-5.1-10-10.4-9.1-17.8-5.7-1.9-10.5-2.4-14.9-6.8-3.6-3.5-6.5-7.8-8.6-12.3-3.7-7.9-7.4-23.4.7-29.9,3.3-2.6,8.6-3.3,12.6-2.2,5.3,1.5,6.7,6.3,7.7,11.2,1.8,8.7,4.1,22.9-7.3,25.6,6.6,7.2,11.9,7.1,20.9-.2,8.8,7.4,15.6,7.4,20.6-.1-7.9-1.5-8.3-9.6-8.6-16.1-.4-7.5-1.4-14.8-5.9-21-8.2-11.3-24.7-13-37.6-11.5-11.2,1.3-21.6,7.2-26.9,17.4-5.9,11.2-5,25.5,1.3,36.3,3.4,6,8.2,10.8,13.2,15.4,4.9,4.5,9.4,9.4,8.4,16.6,11.6-1,18.4,10.2,21.7,19.9,2.9,8.6,4.4,25.9-5.9,30.5-10.2,4.5-17.8-5.5-18.5-14.5-.7-8.4,2.1-18.8,9.3-23.8-3.6-1.6-6.4-4.3-10.6-3.6-4.1.7-7.9,2.9-11.8,4.4-3.9-3.4-7.1-5.1-10.2-5,.9-5.3-1.3-11.3-6.8-15.7-6.2-4.9-12.7-6.2-19.3-3.4-3,1.3-5.7,2.9-8.2,4.2-6.1-3.8-11.5-7.7-17.3-10.6-5.8-2.9-12-5.1-18.2-6.9-9.2-2.6-18.4-2.8-26.9.4-9,3.4-16.3,9.1-20,18.4-3.8,9.5.8,20.5,10.1,25h0v.3h-.2,0ZM115.14,250c0,.2,0,.3-.2.5-5.1-.2-10.3,0-15.5.2-.6-1.9-1-4.1-.9-6.4.3-6.6,1.6-12.7,3.7-18.8,4.8,0,9.9.1,15.3.2,1.5,8.4.7,16.4-2.4,24.3h0ZM102.54,224.5c2.1-5.9,4.9-11.8,8.1-17.9,3.3,6.1,5.5,12,6.6,17.7-5.2,0-10.1.1-14.7.2h0ZM123.44,219.7c-2.7-6.5-5.6-13-8-19.7-1.2-3.3,1-5.2,3.7-7.5,3.3,9.4,5.6,18.1,4.3,27.1h0v.1ZM110.94,155.3c.9-.5,1.6-1.1,2.3-1.7,3.3,3.1,3.8,8.2,3.9,13.1,0,1.9,0,3.8.3,5.6-.9-1.7-1.8-3.5-2.7-5.3s-.5-1.2-.6-1.8l-6.2-8.3c1.2-.7,2.1-1.1,2.9-1.6h.1ZM104.14,135.7c3.1,3,3.9,6.9,2.1,9.5-1.5,2-6.6,2.2-9.2-.2-3.1-2.7-5.8-5.9-9.2-9.4,7-4.6,11.7-4.3,16.3.2h0v-.1ZM84.04,143.2c7.8,7.5,15.4,14.4,21.5,23.3-13.8,1.4-23.9-9.3-21.5-23.3Z"/><path class="uuid-e99c49d8" d="M322.14,211.5c0,4.1-6.9,13.5-9.9,13.5,3,0,9.9,9.4,9.9,13.5,0-4.1,6.9-13.5,9.9-13.5-3,0-9.9-9.4-9.9-13.5Z"/><path class="uuid-e99c49d8" d="M347.04,220.6c0,1.4-3.9,4.4-4.5,4.4.6,0,4.5,3.1,4.5,4.4,0-1.4,225.9-4.4,228.9-4.4-3,0-228.9-3.1-228.9-4.4h0Z"/></g></g></svg>